<?xml version="1.0" standalone="no"?>
<!DOCTYPE svg PUBLIC "-//W3C//DTD SVG 20010904//EN"
 "http://www.w3.org/TR/2001/REC-SVG-20010904/DTD/svg10.dtd">
<svg version="1.0" xmlns="http://www.w3.org/2000/svg"
 width="700.000000pt" height="700.000000pt" viewBox="0 0 700.000000 700.000000"
 preserveAspectRatio="xMidYMid meet">
<metadata>
Created by potrace 1.11, written by Peter Selinger 2001-2013
</metadata>
<g transform="translate(0.000000,700.000000) scale(0.100000,-0.100000)"
fill="#000000" stroke="none">
<path d="M0 3500 l0 -3500 3500 0 3500 0 0 3500 0 3500 -3500 0 -3500 0 0
-3500z m5108 1556 c159 -179 245 -304 320 -466 115 -251 164 -472 164 -745 1
-480 -178 -911 -519 -1252 -540 -540 -1377 -667 -2052 -313 -108 57 -241 145
-305 201 -24 22 -48 39 -52 39 -5 0 -162 -153 -349 -340 l-340 -340 -95 108
c-120 134 -178 210 -237 309 -117 198 -198 423 -234 658 -16 105 -16 377 0
490 55 383 232 734 508 1007 440 436 1052 604 1667 458 214 -51 450 -165 629
-303 44 -34 87 -68 96 -74 14 -11 61 32 356 327 187 187 342 340 346 340 3 0
47 -47 97 -104z"/>
<path d="M4632 4497 l-363 -363 36 -44 c171 -204 159 -454 -32 -660 -140 -151
-334 -213 -505 -160 -64 19 -170 81 -197 113 -7 9 -19 17 -25 17 -6 0 -174
-163 -374 -363 l-363 -363 28 -25 c102 -92 281 -198 441 -260 174 -67 353
-100 551 -100 423 0 800 154 1097 449 486 482 601 1205 289 1815 -60 119 -191
307 -213 307 -4 0 -171 -163 -370 -363z"/>
<path d="M2995 4709 c-432 -45 -822 -267 -1086 -618 -421 -561 -412 -1334 25
-1892 l48 -62 368 368 369 369 -40 45 c-79 90 -128 236 -116 349 21 197 187
394 389 462 56 19 83 22 160 18 82 -3 103 -8 168 -39 41 -20 95 -53 119 -73
l45 -37 363 363 c200 200 362 367 360 373 -2 5 -37 36 -78 68 -300 232 -707
346 -1094 306z"/>
</g>
</svg>
