<?xml version="1.0" standalone="no"?>
<!DOCTYPE svg PUBLIC "-//W3C//DTD SVG 20010904//EN"
 "http://www.w3.org/TR/2001/REC-SVG-20010904/DTD/svg10.dtd">
<svg version="1.0" xmlns="http://www.w3.org/2000/svg"
 width="1417.000000pt" height="1417.000000pt" viewBox="0 0 1417.000000 1417.000000"
 preserveAspectRatio="xMidYMid meet">
<metadata>
Created by potrace 1.11, written by Peter Selinger 2001-2013
</metadata>
<g transform="translate(0.000000,1417.000000) scale(0.100000,-0.100000)"
fill="#000000" stroke="none">
<path d="M10635 10950 c-567 -566 -1033 -1030 -1036 -1030 -3 0 -15 8 -26 18
-95 82 -148 129 -157 137 -38 35 -232 186 -332 257 -398 282 -794 491 -1247
657 -113 42 -290 100 -322 107 -5 1 -41 11 -80 22 -76 23 -235 62 -315 77 -14
3 -34 7 -45 9 -90 18 -231 42 -310 52 -22 3 -51 7 -65 10 -14 2 -56 7 -95 10
-38 3 -81 7 -95 10 -135 23 -761 23 -950 0 -19 -3 -62 -7 -95 -11 -68 -7 -93
-10 -235 -31 -39 -5 -181 -31 -220 -39 -43 -9 -124 -26 -150 -31 -14 -3 -43
-10 -65 -16 -22 -6 -44 -12 -50 -14 -5 -1 -30 -7 -55 -14 -25 -7 -49 -13 -55
-14 -94 -21 -481 -153 -600 -206 -22 -10 -74 -32 -115 -50 -100 -43 -323 -154
-438 -219 -711 -396 -1343 -978 -1797 -1656 -89 -133 -117 -176 -161 -250
-138 -232 -308 -587 -399 -835 -15 -41 -31 -84 -36 -95 -20 -49 -103 -315
-114 -365 -2 -8 -11 -44 -20 -80 -9 -36 -18 -72 -20 -80 -2 -8 -11 -46 -20
-85 -22 -91 -22 -95 -31 -152 -3 -26 -8 -56 -10 -65 -2 -10 -6 -26 -8 -35 -2
-10 -7 -40 -10 -66 -4 -27 -9 -57 -11 -66 -2 -10 -6 -42 -9 -72 -4 -30 -9 -70
-11 -89 -22 -175 -28 -287 -29 -580 0 -299 9 -459 39 -695 14 -106 51 -320 76
-430 11 -49 22 -99 25 -110 36 -171 164 -578 223 -710 5 -11 35 -81 66 -155
58 -136 221 -462 256 -512 11 -14 19 -29 19 -33 0 -8 137 -225 209 -330 91
-134 309 -417 351 -455 3 -3 39 -43 80 -90 41 -47 134 -144 205 -217 l131
-132 1029 1029 c567 567 1035 1030 1040 1030 6 -1 35 -24 65 -52 44 -41 162
-140 250 -211 209 -169 537 -382 788 -513 36 -19 70 -38 76 -42 23 -17 326
-152 461 -205 142 -55 416 -148 490 -166 22 -5 101 -25 175 -44 74 -20 155
-39 180 -42 24 -4 47 -8 51 -10 5 -4 88 -19 164 -31 17 -2 46 -7 65 -10 47 -8
69 -11 175 -24 419 -49 910 -46 1304 10 36 5 89 12 116 15 80 11 381 72 490
100 104 27 329 92 355 102 19 8 142 52 155 57 54 17 161 60 173 69 6 5 12 7
12 4 0 -12 386 170 535 253 33 18 69 38 80 44 11 6 27 16 35 22 8 6 35 22 60
35 66 35 332 214 446 300 495 371 954 866 1277 1374 31 50 60 95 64 101 5 5
13 19 19 30 203 357 293 544 410 852 71 186 177 537 198 655 3 15 7 35 10 45
3 9 7 28 10 42 3 14 7 36 10 50 12 55 16 77 22 114 3 21 8 48 10 60 6 23 8 36
19 116 4 30 9 63 10 72 2 9 7 48 10 85 4 37 9 76 11 87 25 133 25 910 0 1043
-2 10 -7 45 -10 78 -4 33 -9 71 -11 85 -2 14 -9 59 -14 100 -6 41 -13 86 -16
100 -3 14 -8 41 -11 60 -2 19 -8 49 -12 65 -3 17 -7 35 -7 40 -5 49 -73 313
-122 475 -120 398 -304 811 -527 1184 -46 77 -197 307 -217 330 -5 6 -39 51
-74 100 -127 172 -298 369 -504 579 l-136 137 -1030 -1030z"/>
</g>
</svg>
