<?xml version="1.0" standalone="no"?>
<!DOCTYPE svg PUBLIC "-//W3C//DTD SVG 20010904//EN"
 "http://www.w3.org/TR/2001/REC-SVG-20010904/DTD/svg10.dtd">
<svg version="1.0" xmlns="http://www.w3.org/2000/svg"
 width="709.000000pt" height="709.000000pt" viewBox="0 0 709.000000 709.000000"
 preserveAspectRatio="xMidYMid meet">
<metadata>
Created by potrace 1.11, written by Peter Selinger 2001-2013
</metadata>
<g transform="translate(0.000000,709.000000) scale(0.100000,-0.100000)"
fill="#000000" stroke="none">
<path d="M5261 5929 c-36 -8 -85 -49 -108 -93 -17 -32 -19 -163 -28 -1976 -5
-1058 -13 -1872 -19 -1877 -2 -2 -54 228 -81 356 -2 9 -13 57 -25 106 -12 50
-23 98 -25 108 -12 54 -84 360 -127 537 -27 113 -51 212 -53 220 -2 8 -8 35
-15 60 -7 25 -13 52 -15 60 -2 8 -11 44 -20 80 -9 36 -19 72 -20 80 -9 37 -78
299 -115 435 -22 83 -43 157 -44 165 -2 8 -21 74 -41 145 -237 844 -446 1386
-571 1484 -39 31 -90 28 -123 -8 -50 -54 -62 -134 -77 -551 -3 -85 -7 -195 -9
-245 -23 -582 -23 -1505 0 -1915 2 -30 6 -111 9 -180 3 -69 8 -156 11 -195 3
-38 7 -115 10 -170 2 -55 8 -176 12 -270 10 -229 9 -584 -1 -725 -14 -191 -14
-233 1 -262 19 -39 39 -46 117 -42 111 5 175 33 203 87 17 35 14 230 -11 657
-4 69 -9 141 -11 160 -2 19 -6 78 -9 130 -4 52 -9 115 -11 140 -13 136 -17
278 -20 690 -4 522 -7 1848 -5 1870 1 8 8 -7 15 -35 7 -27 31 -121 54 -207 61
-235 123 -471 126 -488 2 -8 38 -141 80 -295 42 -154 78 -287 80 -295 8 -34
143 -517 226 -810 289 -1009 488 -1570 592 -1668 62 -58 166 29 198 163 8 35
12 294 15 875 8 1982 31 3262 61 3410 4 19 6 63 6 98 -1 71 -32 144 -74 175
-27 20 -102 27 -158 16z"/>
<path d="M3011 5773 c-24 -8 -63 -35 -88 -59 l-45 -43 7 -248 c4 -136 9 -268
10 -293 4 -58 20 -443 30 -720 7 -216 15 -377 20 -450 3 -36 7 -96 10 -135 9
-130 16 -209 20 -235 10 -57 16 -187 20 -425 7 -426 8 -1315 1 -1425 -17 -261
-90 -369 -252 -371 -173 -2 -362 216 -479 551 -78 225 -114 401 -129 640 -3
41 -8 113 -11 160 -6 91 -13 174 -20 230 -11 91 -18 137 -21 155 -33 169 -37
217 -49 660 -12 426 -16 575 -20 750 -5 202 -13 500 -20 730 -9 296 -26 388
-90 463 -74 88 -184 88 -260 0 -49 -57 -58 -112 -34 -196 18 -62 19 -120 24
-832 3 -421 7 -819 10 -885 4 -149 14 -371 20 -450 2 -33 7 -105 10 -160 3
-55 8 -111 10 -125 2 -14 6 -52 9 -85 6 -54 10 -86 21 -165 2 -14 6 -43 10
-65 3 -23 7 -50 9 -60 3 -19 11 -66 22 -140 11 -74 36 -207 55 -290 10 -49 21
-99 23 -110 2 -11 19 -65 36 -120 148 -461 365 -757 615 -838 78 -26 103 -29
220 -32 192 -5 287 27 398 137 52 51 77 86 107 150 38 82 73 200 84 288 4 25
9 68 13 95 8 66 8 705 -1 965 -7 200 -8 244 -22 500 -3 69 -7 157 -9 195 -5
121 -15 317 -20 395 -3 41 -8 134 -11 205 -3 72 -7 162 -9 200 -25 463 -25
952 -1 1090 5 28 19 164 21 200 2 49 -14 82 -63 131 -53 52 -100 84 -122 83
-8 0 -35 -8 -59 -16z"/>
</g>
</svg>
