<?xml version="1.0" encoding="utf-8"?>
<!-- Generator: Adobe Illustrator 16.0.0, SVG Export Plug-In . SVG Version: 6.00 Build 0)  -->
<!DOCTYPE svg PUBLIC "-//W3C//DTD SVG 1.1//EN" "http://www.w3.org/Graphics/SVG/1.1/DTD/svg11.dtd">
<svg version="1.1" id="Layer_1" xmlns="http://www.w3.org/2000/svg" xmlns:xlink="http://www.w3.org/1999/xlink" x="0px" y="0px"
	 width="1600px" height="1565px" viewBox="0 0 1600 1565" enable-background="new 0 0 1600 1565" xml:space="preserve">
<path fill="#363636" d="M1448.4,543.4c10.398-13.102,39.3-41.7,53.1-52.7c14.5-11.602,38.9-27.9,54.7-36.5
	c10.3-5.602,34.5-16.602,43.1-19.5c1.602-0.602,1.7-11.9,1.7-217.7V0h-327.601H945.7l-10.4,10.7c-9,9.2-22.2,23.2-35.7,37.8
	c-6.6,7.2-29,33.6-43.1,51c-17.5,21.6-26.5,33.9-53.4,73C777,210.5,737.7,281.6,717.7,327c-0.8,1.9-3.602,8.2-6.2,14
	c-10.4,23.1-21.4,51.5-32.9,85c-8.8,25.6-10.8,31.6-15.1,46.5c-1.4,4.9-3.2,11-4,13.5c-4.8,15.3-18.4,73-20.9,89
	c-0.3,1.9-1,6-1.698,9c-0.602,3-1.5,7.4-2,9.8c-1.9,9.4-8.302,53.3-9.302,64.2c-0.3,3-1.3,12.7-2.1,21.5c-1.5,15.3-2.1,22.1-2.9,33
	c-0.198,2.7-0.8,10.2-1.198,16.5c-1.102,14.5-1.2,98.9-0.102,121.5c0.9,18.3,4,56,5.7,69c0.6,4.4,1.3,10.2,1.5,13
	c0.7,7.3,4.2,29.6,7.7,48.5c1.6,9.1,3.6,19.9,4.3,24c1.7,9.8,4,20.9,6.6,31.7c1.102,4.898,2.2,9.5,2.4,10.3s1,4.7,1.9,8.5
	c1.698,8,7,28.6,9.1,35.5c1.8,5.8,6.3,21.4,7.7,26.5c1.2,4.7,1.2,4.6,7.3,23.5c2.5,8,5,15.4,5.5,16.5c0.4,1.1,2.5,6.7,4.5,12.5
	c6.5,18.3,22,57.2,29,72.5c1.2,2.7,4.2,9.3,6.6,14.5c13.9,30.7,43.4,85.7,62.802,116.7c14.1,22.7,37.1,57,40.698,60.7
	c0.5,0.6,2.9,3.8,5.102,7.198c2.3,3.302,6.7,9.4,9.8,13.5c3.1,4.102,7.4,9.7,9.5,12.5c15.3,20.4,48.1,58.102,70.5,81.2
	c7.2,7.4,13.4,14,13.8,14.8c0.7,1.2,50.4,1.4,335.2,1.4H1601v-219.3v-219.301l-11.1-4.399c-15.102-5.8-39.4-18-56.9-28.601
	c-8-4.801-14.7-9-15-9.399c-0.3-0.3-5-4-10.5-8.2c-33.7-25.399-65.2-59.7-87.6-95.3c-7.2-11.5-22.9-41.9-28.2-54.9
	c-14.2-34.1-23.5-73.898-27.2-116.6c-1-11.2-0.7-46.5,0.5-60.8C1371,676,1401,602.5,1448.4,543.4z"/>
</svg>
